<?xml version="1.0" encoding="UTF-8"?><svg id="Layer_1" xmlns="http://www.w3.org/2000/svg" viewBox="0 0 305.083 82.772"><defs><style>.cls-1{fill:#5133ff;}.cls-1,.cls-2{stroke-width:0px;}.cls-2{fill:#fff;}</style></defs><path class="cls-1" d="m105.014,38.249h-7.523c-.564-.002-1.029.457-1.023,1.017v7.421c-.002.556.463,1.015,1.031,1.009h7.523c.564.002,1.029-.457,1.023-1.017v-7.421c-.007-.56-.467-1.006-1.031-1.009Z"/><path class="cls-2" d="m81.929,47.704l12.31-4.241-2.727-2.311V13.086s4.95.002,4.95.002l.002,23.826,12.314-4.25-2.736-2.315V13.093s4.886.003,4.886.003l.004,34.614h0l.002,34.274h7.899s.004-7.156.004-7.156l.112-.002c1.309,5.588,4.193,7.94,8.836,7.939,6.517-.005,9.974-5.253,9.98-14.201-.001-8.613-3.338-13.811-9.81-13.807-4.643.001-7.713,2.295-9.007,7.882l.273-14.932h0l.636-34.608h4.553s.002,16.264.002,16.264c-.003,4.818,2.106,7.33,6.185,7.326,3.256.002,6.044-1.845,9.152-4.492l-.005,4.73,12.314-4.25-2.736-2.315V13.107s2.394,0,2.394,0v-.754s-13.894-.001-13.894-.001v.754s1.92-.004,1.92-.004l.003,18.439c-.958.424-1.915.706-2.881.71-1.964.005-2.872-1.231-2.875-4.915v-14.229s1.919-.004,1.919-.004v-.754s-55.684-.002-55.684-.002v.754s1.705.004,1.705.004l-.004,10.228-7.14-10.988-11.934.003v.754s1.964-.005,1.964-.005l10.401,15.036-2.919,1.271c-3.163,1.364-5.41,2.733-5.415,4.622.004.472.1.801.384,1.175l9.585-.004.004-.238c-1.531-.753-2.066-2.12-2.058-3.351-.004-2.122,1.151-3.251,3.503-4.953l3.646-2.591-.02,23.641-7.765-.003.002,34.274,7.765.003-.002-34.274h0Zm42.572,13.921c3.909.003,5.613,2.575,5.607,6.988.001,4.58-1.755,7.273-5.611,7.273-3.569.004-5.669-2.689-5.674-6.986v-.503c.016-4.364,2.108-6.767,5.678-6.771Z"/><path class="cls-2" d="m265.338,81.977l.003-12.632c.001-3.967,1.357-5.143,5.722-5.144h2.948s-.003-8.724-.003-8.724l-1.306-.003c-3.744-.002-5.949,1.397-7.251,9.452l-.112.002.005-9.451-7.765-.003.003,26.504h7.756Z"/><path class="cls-2" d="m48.466,54.746c-8.498.001-13.944,5.144-13.938,13.978.003,8.723,5.27,14.031,13.943,14.036,8.619,0,13.882-5.315,13.888-14.034-.005-8.833-5.443-13.971-13.892-13.979Zm6.185,13.926c0,4.306-2.214,7.1-6.236,7.099-3.967.002-6.118-2.791-6.119-7.097.005-4.249,2.217-6.99,6.18-6.983,3.905-.01,6.17,2.728,6.174,6.982Z"/><path class="cls-2" d="m100.89,75.489l.112-.002v6.482s7.713,0,7.713,0l.003-16.436c.002-6.764-3.399-10.681-11.567-10.677-8.333.003-11.613,3.968-12.296,9.504l7.256,1.01c.51-3.071,2.149-4.191,4.707-4.19,2.948-.001,4.194,1.569,4.189,4.419l.003,1.116h-6.969c-7.081.002-9.971,3.298-9.978,8.103,0,5.202,3.514,7.719,8.156,7.717,4.531,0,7.476-2.515,8.67-7.046Zm-5.328.892c-2.948.001-3.965-1.286-3.969-2.905.004-1.452,1.358-2.465,3.626-2.458h5.783s-.003.785-.003.785c.01,2.682-2.15,4.584-5.438,4.578Z"/><path class="cls-2" d="m285.463,71.358c4.813.953,5.839,1.786,5.836,3.237-.054,1.625-1.303,2.512-3.799,2.518-3.292.003-4.877-1.737-5.608-4.693l-7.202,1.398c.794,4.865,3.573,8.949,12.639,8.941,8.042.003,11.56-3.239,11.56-8.441.001-3.967-2.208-6.821-9.921-8.329-5.269-.949-5.955-1.96-5.951-3.412.004-1.452,1.248-2.353,3.516-2.346,2.661-.005,3.97,1.344,4.588,4.191l7.368-1.626c-1.023-4.919-4.195-8.05-11.907-8.05-7.537.006-11.222,3.136-11.225,8.161.015,4.368,2.567,6.88,10.107,8.449Z"/><path class="cls-2" d="m242.313,82.761c8.619,0,13.882-5.315,13.888-14.034-.005-8.833-5.439-13.98-13.883-13.975-8.499.001-13.944,5.144-13.938,13.978-.015,8.714,5.261,14.027,13.934,14.031Zm-.004-21.073c3.909.003,6.175,2.741,6.184,6.986,0,4.306-2.214,7.1-6.236,7.099-3.967.002-6.118-2.791-6.119-7.097-.004-4.253,2.207-6.994,6.171-6.987Z"/><path class="cls-2" d="m166.787,68.734c-.005-8.833-5.439-13.98-13.883-13.975-8.498.001-13.944,5.144-13.938,13.978.003,8.723,5.27,14.031,13.943,14.036,8.606-.017,13.873-5.32,13.879-14.038Zm-13.939,7.037c-3.967.002-6.118-2.791-6.119-7.097.005-4.249,2.217-6.99,6.18-6.983,3.909.003,6.175,2.741,6.184,6.986-.017,4.298-2.223,7.096-6.245,7.095Z"/><rect class="cls-2" x="64.266" y="47.706" width="7.76" height="34.269"/><path class="cls-2" d="m192.756,65.368c.51-3.071,2.149-4.191,4.707-4.19,2.948-.001,4.194,1.569,4.189,4.419l.003,1.116h-6.969c-7.081.002-9.971,3.298-9.978,8.103,0,5.202,3.514,7.719,8.156,7.717,4.531,0,7.476-2.515,8.67-7.046l.112-.002v6.482s7.713,0,7.713,0l.003-16.436c.002-6.764-3.399-10.681-11.567-10.677-8.333.003-11.613,3.968-12.296,9.504l7.256,1.01Zm8.897,6.438c-.003,2.687-2.15,4.584-5.442,4.587-2.948.001-3.965-1.286-3.969-2.905.004-1.452,1.358-2.465,3.626-2.458h5.783s.001.776.001.776Z"/><path class="cls-2" d="m210.323,55.48v6.371s3.112,0,3.112,0l.003,11.794c.005,5.03,2.605,9.116,8.845,9.112,2.948-.001,4.309-.388,6.346-1.003l-.848-7.044c-.962.225-2.323.612-3.513.62-2.326-.001-3.114-1.006-3.118-3.128l.002-10.338,7.081-.002v-6.371s-7.08.002-7.08.002v-7.77s-7.71,0-7.71,0v7.77s-3.119-.013-3.119-.013Z"/><path class="cls-2" d="m176.042,64.924l-.112.002.005-9.451-7.765-.003.003,26.504,7.765.003.003-12.632c.001-3.967,1.357-5.143,5.722-5.144h2.948s-.003-8.724-.003-8.724l-1.306-.003c-3.744-.002-5.963,1.402-7.26,9.447Z"/><path class="cls-2" d="m17.16,82.76c9.062.001,15.245-6.095,16.155-14.76l-7.768-1.119c-.966,5.48-3.402,8.662-8.443,8.662-5.949-.001-8.957-4.138-8.95-10.452.002-5.595,3.002-10.172,8.897-10.175,4.987-.003,7.653,3.076,8.445,8.334l7.879-1.287c-.964-8.661-6.917-14.314-16.09-14.314C7.025,47.652-.004,54.695,0,65.09c-.004,10.457,6.622,17.673,17.16,17.67Z"/><polygon class="cls-2" points="12.033 20.752 17.353 33.189 14.14 35.503 30.958 35.503 27.703 33.185 16.396 12.575 30.336 6.293 21.236 0 15.524 12.34 5.133 33.189 1.92 35.502 11.215 35.504 7.526 33.189 12.033 20.752"/><polygon class="cls-2" points="32.164 13.098 32.168 47.712 44.482 43.462 41.755 41.152 41.75 13.094 44.143 13.095 44.142 12.34 29.771 12.343 29.771 13.098 32.164 13.098"/><path class="cls-2" d="m153.25,45.108l-4.263,2.606,13.607-.002-5.703-2.596-.818-18.702c-.43-9.514,2.201-13.489,7.618-13.487,5.032-.004,7.763,3.237,7.765,13.293l.003,18.898-4.263,2.606h19.068s-4.262-2.597-4.262-2.597l-.003-18.209c0-10.492-4.313-15.505-15.572-15.501-8.575-.002-11.887,3.183-12.316,13.44l-.862,20.25Z"/><path class="cls-2" d="m45.034,16.498c3.212.003,6.666,1.749,9.395,4.399-5.748,2.126-8.814,5.58-8.816,9.502.002,3.455,3.111,6.054,7.62,6.055,7.667,0,12.363-5.724,12.362-12.621-.004-7.324-5.562-11.961-12.32-11.961-4.455.002-7.67,1.703-9.675,4.726l.046.043c.423-.096.901-.144,1.388-.145Zm9.678,4.685c2.873,2.926,4.938,6.903,4.936,10.825-.003,1.747-.717,2.788-1.969,2.789-2.062.003-4.843-3.503-4.84-7.611.004-2.414.532-4.307,1.873-6.004Z"/><path class="cls-2" d="m300.373,79.98l-.004-.45,1.753-.006.004.45-1.753.006Zm.622-.439l.519.004v2.109s-.519-.004-.519-.004v-2.109Z"/><path class="cls-2" d="m303.787,81.258c.008-.062.024-.142.045-.23s.041-.177.062-.266.041-.177.067-.253c.016-.08.038-.146.054-.204l.254-.777.81-.002.004,2.122h-.51s-.003-.886-.003-.886c.002-.119,0-.251.011-.388.002-.141.008-.269.015-.397s.004-.238.003-.327l.122.298h-.3s.137-.306.137-.306c-.02.111-.054.226-.083.354s-.071.262-.104.399-.075.271-.131.408l-.243.64-.497-.004-.231-.644c-.043-.14-.086-.281-.12-.417-.038-.127-.063-.259-.096-.373-.029-.123-.049-.242-.083-.356l.122.32-.264-.004.097-.293c.006.101.008.212.015.335s.009.256-.002.393c.002.132.005.265-.002.393l.003.887h-.465s-.009-2.158-.009-2.158l.854-.002.243.803c.01.048.033.114.053.189.019.075.043.162.067.25.024.088.048.176.068.272.024.088.043.162.054.233l-.176-.323.286.004-.128.311Z"/></svg>